G04 #@! TF.GenerationSoftware,KiCad,Pcbnew,5.1.12-1.fc33*
G04 #@! TF.CreationDate,2022-08-09T09:44:03-04:00*
G04 #@! TF.ProjectId,ha_monitor,68615f6d-6f6e-4697-946f-722e6b696361,rev?*
G04 #@! TF.SameCoordinates,Original*
G04 #@! TF.FileFunction,Legend,Top*
G04 #@! TF.FilePolarity,Positive*
%FSLAX46Y46*%
G04 Gerber Fmt 4.6, Leading zero omitted, Abs format (unit mm)*
G04 Created by KiCad (PCBNEW 5.1.12-1.fc33) date 2022-08-09 09:44:03*
%MOMM*%
%LPD*%
G01*
G04 APERTURE LIST*
%ADD10C,0.150000*%
%ADD11C,0.120000*%
G04 APERTURE END LIST*
D10*
X60888571Y-75102500D02*
X60888571Y-75864404D01*
X64047619Y-73673928D02*
X64047619Y-73864404D01*
X64000000Y-73959642D01*
X63904761Y-74054880D01*
X63714285Y-74102500D01*
X63380952Y-74102500D01*
X63190476Y-74054880D01*
X63095238Y-73959642D01*
X63047619Y-73864404D01*
X63047619Y-73673928D01*
X63095238Y-73578690D01*
X63190476Y-73483452D01*
X63380952Y-73435833D01*
X63714285Y-73435833D01*
X63904761Y-73483452D01*
X64000000Y-73578690D01*
X64047619Y-73673928D01*
X64047619Y-74531071D02*
X63238095Y-74531071D01*
X63142857Y-74578690D01*
X63095238Y-74626309D01*
X63047619Y-74721547D01*
X63047619Y-74912023D01*
X63095238Y-75007261D01*
X63142857Y-75054880D01*
X63238095Y-75102500D01*
X64047619Y-75102500D01*
X64047619Y-75435833D02*
X64047619Y-76007261D01*
X63047619Y-75721547D02*
X64047619Y-75721547D01*
X65968571Y-75102500D02*
X65968571Y-75864404D01*
X65587619Y-75483452D02*
X66349523Y-75483452D01*
X77107023Y-69032380D02*
X76773690Y-68556190D01*
X76535595Y-69032380D02*
X76535595Y-68032380D01*
X76916547Y-68032380D01*
X77011785Y-68080000D01*
X77059404Y-68127619D01*
X77107023Y-68222857D01*
X77107023Y-68365714D01*
X77059404Y-68460952D01*
X77011785Y-68508571D01*
X76916547Y-68556190D01*
X76535595Y-68556190D01*
X77487976Y-68984761D02*
X77630833Y-69032380D01*
X77868928Y-69032380D01*
X77964166Y-68984761D01*
X78011785Y-68937142D01*
X78059404Y-68841904D01*
X78059404Y-68746666D01*
X78011785Y-68651428D01*
X77964166Y-68603809D01*
X77868928Y-68556190D01*
X77678452Y-68508571D01*
X77583214Y-68460952D01*
X77535595Y-68413333D01*
X77487976Y-68318095D01*
X77487976Y-68222857D01*
X77535595Y-68127619D01*
X77583214Y-68080000D01*
X77678452Y-68032380D01*
X77916547Y-68032380D01*
X78059404Y-68080000D01*
X78345119Y-68032380D02*
X78916547Y-68032380D01*
X78630833Y-69032380D02*
X78630833Y-68032380D01*
X76487976Y-66206666D02*
X76964166Y-66206666D01*
X76392738Y-66492380D02*
X76726071Y-65492380D01*
X77059404Y-66492380D01*
X77583214Y-65492380D02*
X77678452Y-65492380D01*
X77773690Y-65540000D01*
X77821309Y-65587619D01*
X77868928Y-65682857D01*
X77916547Y-65873333D01*
X77916547Y-66111428D01*
X77868928Y-66301904D01*
X77821309Y-66397142D01*
X77773690Y-66444761D01*
X77678452Y-66492380D01*
X77583214Y-66492380D01*
X77487976Y-66444761D01*
X77440357Y-66397142D01*
X77392738Y-66301904D01*
X77345119Y-66111428D01*
X77345119Y-65873333D01*
X77392738Y-65682857D01*
X77440357Y-65587619D01*
X77487976Y-65540000D01*
X77583214Y-65492380D01*
X76535595Y-63952380D02*
X76535595Y-62952380D01*
X76773690Y-62952380D01*
X76916547Y-63000000D01*
X77011785Y-63095238D01*
X77059404Y-63190476D01*
X77107023Y-63380952D01*
X77107023Y-63523809D01*
X77059404Y-63714285D01*
X77011785Y-63809523D01*
X76916547Y-63904761D01*
X76773690Y-63952380D01*
X76535595Y-63952380D01*
X77964166Y-63285714D02*
X77964166Y-63952380D01*
X77726071Y-62904761D02*
X77487976Y-63619047D01*
X78107023Y-63619047D01*
X76535595Y-61412380D02*
X76535595Y-60412380D01*
X76773690Y-60412380D01*
X76916547Y-60460000D01*
X77011785Y-60555238D01*
X77059404Y-60650476D01*
X77107023Y-60840952D01*
X77107023Y-60983809D01*
X77059404Y-61174285D01*
X77011785Y-61269523D01*
X76916547Y-61364761D01*
X76773690Y-61412380D01*
X76535595Y-61412380D01*
X78011785Y-60412380D02*
X77535595Y-60412380D01*
X77487976Y-60888571D01*
X77535595Y-60840952D01*
X77630833Y-60793333D01*
X77868928Y-60793333D01*
X77964166Y-60840952D01*
X78011785Y-60888571D01*
X78059404Y-60983809D01*
X78059404Y-61221904D01*
X78011785Y-61317142D01*
X77964166Y-61364761D01*
X77868928Y-61412380D01*
X77630833Y-61412380D01*
X77535595Y-61364761D01*
X77487976Y-61317142D01*
X76535595Y-58872380D02*
X76535595Y-57872380D01*
X76773690Y-57872380D01*
X76916547Y-57920000D01*
X77011785Y-58015238D01*
X77059404Y-58110476D01*
X77107023Y-58300952D01*
X77107023Y-58443809D01*
X77059404Y-58634285D01*
X77011785Y-58729523D01*
X76916547Y-58824761D01*
X76773690Y-58872380D01*
X76535595Y-58872380D01*
X77964166Y-57872380D02*
X77773690Y-57872380D01*
X77678452Y-57920000D01*
X77630833Y-57967619D01*
X77535595Y-58110476D01*
X77487976Y-58300952D01*
X77487976Y-58681904D01*
X77535595Y-58777142D01*
X77583214Y-58824761D01*
X77678452Y-58872380D01*
X77868928Y-58872380D01*
X77964166Y-58824761D01*
X78011785Y-58777142D01*
X78059404Y-58681904D01*
X78059404Y-58443809D01*
X78011785Y-58348571D01*
X77964166Y-58300952D01*
X77868928Y-58253333D01*
X77678452Y-58253333D01*
X77583214Y-58300952D01*
X77535595Y-58348571D01*
X77487976Y-58443809D01*
X76535595Y-56332380D02*
X76535595Y-55332380D01*
X76773690Y-55332380D01*
X76916547Y-55380000D01*
X77011785Y-55475238D01*
X77059404Y-55570476D01*
X77107023Y-55760952D01*
X77107023Y-55903809D01*
X77059404Y-56094285D01*
X77011785Y-56189523D01*
X76916547Y-56284761D01*
X76773690Y-56332380D01*
X76535595Y-56332380D01*
X77440357Y-55332380D02*
X78107023Y-55332380D01*
X77678452Y-56332380D01*
X76535595Y-53792380D02*
X76535595Y-52792380D01*
X76773690Y-52792380D01*
X76916547Y-52840000D01*
X77011785Y-52935238D01*
X77059404Y-53030476D01*
X77107023Y-53220952D01*
X77107023Y-53363809D01*
X77059404Y-53554285D01*
X77011785Y-53649523D01*
X76916547Y-53744761D01*
X76773690Y-53792380D01*
X76535595Y-53792380D01*
X77678452Y-53220952D02*
X77583214Y-53173333D01*
X77535595Y-53125714D01*
X77487976Y-53030476D01*
X77487976Y-52982857D01*
X77535595Y-52887619D01*
X77583214Y-52840000D01*
X77678452Y-52792380D01*
X77868928Y-52792380D01*
X77964166Y-52840000D01*
X78011785Y-52887619D01*
X78059404Y-52982857D01*
X78059404Y-53030476D01*
X78011785Y-53125714D01*
X77964166Y-53173333D01*
X77868928Y-53220952D01*
X77678452Y-53220952D01*
X77583214Y-53268571D01*
X77535595Y-53316190D01*
X77487976Y-53411428D01*
X77487976Y-53601904D01*
X77535595Y-53697142D01*
X77583214Y-53744761D01*
X77678452Y-53792380D01*
X77868928Y-53792380D01*
X77964166Y-53744761D01*
X78011785Y-53697142D01*
X78059404Y-53601904D01*
X78059404Y-53411428D01*
X78011785Y-53316190D01*
X77964166Y-53268571D01*
X77868928Y-53220952D01*
X76440357Y-50252380D02*
X77059404Y-50252380D01*
X76726071Y-50633333D01*
X76868928Y-50633333D01*
X76964166Y-50680952D01*
X77011785Y-50728571D01*
X77059404Y-50823809D01*
X77059404Y-51061904D01*
X77011785Y-51157142D01*
X76964166Y-51204761D01*
X76868928Y-51252380D01*
X76583214Y-51252380D01*
X76487976Y-51204761D01*
X76440357Y-51157142D01*
X77345119Y-50252380D02*
X77678452Y-51252380D01*
X78011785Y-50252380D01*
X78249880Y-50252380D02*
X78868928Y-50252380D01*
X78535595Y-50633333D01*
X78678452Y-50633333D01*
X78773690Y-50680952D01*
X78821309Y-50728571D01*
X78868928Y-50823809D01*
X78868928Y-51061904D01*
X78821309Y-51157142D01*
X78773690Y-51204761D01*
X78678452Y-51252380D01*
X78392738Y-51252380D01*
X78297500Y-51204761D01*
X78249880Y-51157142D01*
X46543452Y-68032380D02*
X47114880Y-68032380D01*
X46829166Y-69032380D02*
X46829166Y-68032380D01*
X47352976Y-68032380D02*
X48019642Y-69032380D01*
X48019642Y-68032380D02*
X47352976Y-69032380D01*
X47019642Y-66492380D02*
X46686309Y-66016190D01*
X46448214Y-66492380D02*
X46448214Y-65492380D01*
X46829166Y-65492380D01*
X46924404Y-65540000D01*
X46972023Y-65587619D01*
X47019642Y-65682857D01*
X47019642Y-65825714D01*
X46972023Y-65920952D01*
X46924404Y-65968571D01*
X46829166Y-66016190D01*
X46448214Y-66016190D01*
X47352976Y-65492380D02*
X48019642Y-66492380D01*
X48019642Y-65492380D02*
X47352976Y-66492380D01*
X46448214Y-63952380D02*
X46448214Y-62952380D01*
X46686309Y-62952380D01*
X46829166Y-63000000D01*
X46924404Y-63095238D01*
X46972023Y-63190476D01*
X47019642Y-63380952D01*
X47019642Y-63523809D01*
X46972023Y-63714285D01*
X46924404Y-63809523D01*
X46829166Y-63904761D01*
X46686309Y-63952380D01*
X46448214Y-63952380D01*
X47876785Y-63285714D02*
X47876785Y-63952380D01*
X47638690Y-62904761D02*
X47400595Y-63619047D01*
X48019642Y-63619047D01*
X46448214Y-61412380D02*
X46448214Y-60412380D01*
X46686309Y-60412380D01*
X46829166Y-60460000D01*
X46924404Y-60555238D01*
X46972023Y-60650476D01*
X47019642Y-60840952D01*
X47019642Y-60983809D01*
X46972023Y-61174285D01*
X46924404Y-61269523D01*
X46829166Y-61364761D01*
X46686309Y-61412380D01*
X46448214Y-61412380D01*
X47400595Y-60507619D02*
X47448214Y-60460000D01*
X47543452Y-60412380D01*
X47781547Y-60412380D01*
X47876785Y-60460000D01*
X47924404Y-60507619D01*
X47972023Y-60602857D01*
X47972023Y-60698095D01*
X47924404Y-60840952D01*
X47352976Y-61412380D01*
X47972023Y-61412380D01*
X46448214Y-58872380D02*
X46448214Y-57872380D01*
X46686309Y-57872380D01*
X46829166Y-57920000D01*
X46924404Y-58015238D01*
X46972023Y-58110476D01*
X47019642Y-58300952D01*
X47019642Y-58443809D01*
X46972023Y-58634285D01*
X46924404Y-58729523D01*
X46829166Y-58824761D01*
X46686309Y-58872380D01*
X46448214Y-58872380D01*
X47352976Y-57872380D02*
X47972023Y-57872380D01*
X47638690Y-58253333D01*
X47781547Y-58253333D01*
X47876785Y-58300952D01*
X47924404Y-58348571D01*
X47972023Y-58443809D01*
X47972023Y-58681904D01*
X47924404Y-58777142D01*
X47876785Y-58824761D01*
X47781547Y-58872380D01*
X47495833Y-58872380D01*
X47400595Y-58824761D01*
X47352976Y-58777142D01*
X46448214Y-56332380D02*
X46448214Y-55332380D01*
X46686309Y-55332380D01*
X46829166Y-55380000D01*
X46924404Y-55475238D01*
X46972023Y-55570476D01*
X47019642Y-55760952D01*
X47019642Y-55903809D01*
X46972023Y-56094285D01*
X46924404Y-56189523D01*
X46829166Y-56284761D01*
X46686309Y-56332380D01*
X46448214Y-56332380D01*
X47876785Y-55665714D02*
X47876785Y-56332380D01*
X47638690Y-55284761D02*
X47400595Y-55999047D01*
X48019642Y-55999047D01*
X45876785Y-52840000D02*
X45781547Y-52792380D01*
X45638690Y-52792380D01*
X45495833Y-52840000D01*
X45400595Y-52935238D01*
X45352976Y-53030476D01*
X45305357Y-53220952D01*
X45305357Y-53363809D01*
X45352976Y-53554285D01*
X45400595Y-53649523D01*
X45495833Y-53744761D01*
X45638690Y-53792380D01*
X45733928Y-53792380D01*
X45876785Y-53744761D01*
X45924404Y-53697142D01*
X45924404Y-53363809D01*
X45733928Y-53363809D01*
X46352976Y-53792380D02*
X46352976Y-52792380D01*
X46924404Y-53792380D01*
X46924404Y-52792380D01*
X47400595Y-53792380D02*
X47400595Y-52792380D01*
X47638690Y-52792380D01*
X47781547Y-52840000D01*
X47876785Y-52935238D01*
X47924404Y-53030476D01*
X47972023Y-53220952D01*
X47972023Y-53363809D01*
X47924404Y-53554285D01*
X47876785Y-53649523D01*
X47781547Y-53744761D01*
X47638690Y-53792380D01*
X47400595Y-53792380D01*
X47067261Y-50252380D02*
X46591071Y-50252380D01*
X46543452Y-50728571D01*
X46591071Y-50680952D01*
X46686309Y-50633333D01*
X46924404Y-50633333D01*
X47019642Y-50680952D01*
X47067261Y-50728571D01*
X47114880Y-50823809D01*
X47114880Y-51061904D01*
X47067261Y-51157142D01*
X47019642Y-51204761D01*
X46924404Y-51252380D01*
X46686309Y-51252380D01*
X46591071Y-51204761D01*
X46543452Y-51157142D01*
X47400595Y-50252380D02*
X47733928Y-51252380D01*
X48067261Y-50252380D01*
D11*
X50800000Y-49470000D02*
X52130000Y-49470000D01*
X52130000Y-49470000D02*
X52130000Y-50800000D01*
X52130000Y-52070000D02*
X52130000Y-69910000D01*
X49470000Y-69910000D02*
X52130000Y-69910000D01*
X49470000Y-52070000D02*
X49470000Y-69910000D01*
X49470000Y-52070000D02*
X52130000Y-52070000D01*
X72330000Y-52070000D02*
X74990000Y-52070000D01*
X72330000Y-52070000D02*
X72330000Y-69910000D01*
X72330000Y-69910000D02*
X74990000Y-69910000D01*
X74990000Y-52070000D02*
X74990000Y-69910000D01*
X74990000Y-49470000D02*
X74990000Y-50800000D01*
X73660000Y-49470000D02*
X74990000Y-49470000D01*
X67370000Y-78740000D02*
X67370000Y-80070000D01*
X67370000Y-80070000D02*
X66040000Y-80070000D01*
X64770000Y-80070000D02*
X59630000Y-80070000D01*
X59630000Y-77410000D02*
X59630000Y-80070000D01*
X64770000Y-77410000D02*
X59630000Y-77410000D01*
X64770000Y-77410000D02*
X64770000Y-80070000D01*
M02*
