M48
INCH,TZ
T1C0.0394
T2C0.1260
%
G90
G05
T1
X20000Y-20000
X20000Y-21000
X20000Y-22000
X20000Y-23000
X20000Y-24000
X20000Y-25000
X20000Y-26000
X20000Y-27000
X23000Y-16000
X24000Y-16000
X24000Y-31000
X25000Y-16000
X25000Y-31000
X26000Y-16000
X26000Y-31000
X27000Y-21000
X27000Y-22000
X27000Y-23000
X27000Y-24000
X29000Y-20000
X29000Y-21000
X29000Y-22000
X29000Y-23000
X29000Y-24000
X29000Y-25000
X29000Y-26000
X29000Y-27000
T2
X19000Y-17000
X19000Y-30000
X30000Y-17000
X30000Y-30000
T0
M30
