G04 #@! TF.GenerationSoftware,KiCad,Pcbnew,5.1.12-1.fc33*
G04 #@! TF.CreationDate,2022-08-09T09:44:03-04:00*
G04 #@! TF.ProjectId,ha_monitor,68615f6d-6f6e-4697-946f-722e6b696361,rev?*
G04 #@! TF.SameCoordinates,Original*
G04 #@! TF.FileFunction,Copper,L1,Top*
G04 #@! TF.FilePolarity,Positive*
%FSLAX46Y46*%
G04 Gerber Fmt 4.6, Leading zero omitted, Abs format (unit mm)*
G04 Created by KiCad (PCBNEW 5.1.12-1.fc33) date 2022-08-09 09:44:03*
%MOMM*%
%LPD*%
G01*
G04 APERTURE LIST*
G04 #@! TA.AperFunction,ComponentPad*
%ADD10O,1.700000X1.700000*%
G04 #@! TD*
G04 #@! TA.AperFunction,ComponentPad*
%ADD11R,1.700000X1.700000*%
G04 #@! TD*
G04 #@! TA.AperFunction,ComponentPad*
%ADD12C,6.400000*%
G04 #@! TD*
G04 #@! TA.AperFunction,Conductor*
%ADD13C,0.250000*%
G04 #@! TD*
G04 APERTURE END LIST*
D10*
X68580000Y-53340000D03*
X68580000Y-55880000D03*
X68580000Y-58420000D03*
D11*
X68580000Y-60960000D03*
X58420000Y-40640000D03*
D10*
X60960000Y-40640000D03*
X63500000Y-40640000D03*
X66040000Y-40640000D03*
D11*
X50800000Y-50800000D03*
D10*
X50800000Y-53340000D03*
X50800000Y-55880000D03*
X50800000Y-58420000D03*
X50800000Y-60960000D03*
X50800000Y-63500000D03*
X50800000Y-66040000D03*
X50800000Y-68580000D03*
X73660000Y-68580000D03*
X73660000Y-66040000D03*
X73660000Y-63500000D03*
X73660000Y-60960000D03*
X73660000Y-58420000D03*
X73660000Y-55880000D03*
X73660000Y-53340000D03*
D11*
X73660000Y-50800000D03*
D12*
X48260000Y-76200000D03*
X48260000Y-43180000D03*
X76200000Y-43180000D03*
X76200000Y-76200000D03*
D11*
X66040000Y-78740000D03*
D10*
X63500000Y-78740000D03*
X60960000Y-78740000D03*
D13*
X63500000Y-53340000D02*
X68580000Y-58420000D01*
X50800000Y-53340000D02*
X63500000Y-53340000D01*
X69755001Y-44355001D02*
X66040000Y-40640000D01*
X69755001Y-57244999D02*
X69755001Y-44355001D01*
X68580000Y-58420000D02*
X69755001Y-57244999D01*
X62135001Y-79915001D02*
X60960000Y-78740000D01*
X69755001Y-59595001D02*
X69755001Y-77564999D01*
X67404999Y-79915001D02*
X62135001Y-79915001D01*
X69755001Y-77564999D02*
X67404999Y-79915001D01*
X68580000Y-58420000D02*
X69755001Y-59595001D01*
X53340000Y-50800000D02*
X63500000Y-40640000D01*
X50800000Y-50800000D02*
X53340000Y-50800000D01*
X50235999Y-54515001D02*
X62135001Y-54515001D01*
X49624999Y-53904001D02*
X50235999Y-54515001D01*
X49624999Y-51975001D02*
X49624999Y-53904001D01*
X62135001Y-54515001D02*
X68580000Y-60960000D01*
X50800000Y-50800000D02*
X49624999Y-51975001D01*
X68580000Y-76200000D02*
X66040000Y-78740000D01*
X68580000Y-60960000D02*
X68580000Y-76200000D01*
M02*
