%TF.GenerationSoftware,KiCad,Pcbnew,5.1.10-6.fc33*%
%TF.CreationDate,2021-11-22T15:00:23-05:00*%
%TF.ProjectId,ha_monitor,68615f6d-6f6e-4697-946f-722e6b696361,rev?*%
%TF.SameCoordinates,Original*%
%TF.FileFunction,Copper,L1,Top*%
%TF.FilePolarity,Positive*%
%FSLAX46Y46*%
G04 Gerber Fmt 4.6, Leading zero omitted, Abs format (unit mm)*
G04 Created by KiCad (PCBNEW 5.1.10-6.fc33) date 2021-11-22 15:00:23*
%MOMM*%
%LPD*%
G01*
G04 APERTURE LIST*
%TA.AperFunction,ComponentPad*%
%ADD10O,1.700000X1.700000*%
%TD*%
%TA.AperFunction,ComponentPad*%
%ADD11R,1.700000X1.700000*%
%TD*%
%TA.AperFunction,ComponentPad*%
%ADD12C,6.400000*%
%TD*%
%TA.AperFunction,Conductor*%
%ADD13C,0.250000*%
%TD*%
G04 APERTURE END LIST*
D10*
%TO.P,J4,4*%
%TO.N,D1*%
X68580000Y-53340000D03*
%TO.P,J4,3*%
%TO.N,D2*%
X68580000Y-55880000D03*
%TO.P,J4,2*%
%TO.N,GND*%
X68580000Y-58420000D03*
D11*
%TO.P,J4,1*%
%TO.N,5V*%
X68580000Y-60960000D03*
%TD*%
%TO.P,J1,1*%
%TO.N,D1*%
X58420000Y-40640000D03*
D10*
%TO.P,J1,2*%
%TO.N,D2*%
X60960000Y-40640000D03*
%TO.P,J1,3*%
%TO.N,5V*%
X63500000Y-40640000D03*
%TO.P,J1,4*%
%TO.N,GND*%
X66040000Y-40640000D03*
%TD*%
D11*
%TO.P,J2,1*%
%TO.N,5V*%
X50800000Y-50800000D03*
D10*
%TO.P,J2,2*%
%TO.N,GND*%
X50800000Y-53340000D03*
%TO.P,J2,3*%
%TO.N,Net-(J2-Pad3)*%
X50800000Y-55880000D03*
%TO.P,J2,4*%
%TO.N,D3*%
X50800000Y-58420000D03*
%TO.P,J2,5*%
%TO.N,D2*%
X50800000Y-60960000D03*
%TO.P,J2,6*%
%TO.N,D1*%
X50800000Y-63500000D03*
%TO.P,J2,7*%
%TO.N,Net-(J2-Pad7)*%
X50800000Y-66040000D03*
%TO.P,J2,8*%
%TO.N,Net-(J2-Pad8)*%
X50800000Y-68580000D03*
%TD*%
%TO.P,J3,8*%
%TO.N,Net-(J3-Pad8)*%
X73660000Y-68580000D03*
%TO.P,J3,7*%
%TO.N,Net-(J3-Pad7)*%
X73660000Y-66040000D03*
%TO.P,J3,6*%
%TO.N,Net-(J3-Pad6)*%
X73660000Y-63500000D03*
%TO.P,J3,5*%
%TO.N,Net-(J3-Pad5)*%
X73660000Y-60960000D03*
%TO.P,J3,4*%
%TO.N,Net-(J3-Pad4)*%
X73660000Y-58420000D03*
%TO.P,J3,3*%
%TO.N,Net-(J3-Pad3)*%
X73660000Y-55880000D03*
%TO.P,J3,2*%
%TO.N,Net-(J3-Pad2)*%
X73660000Y-53340000D03*
D11*
%TO.P,J3,1*%
%TO.N,Net-(J3-Pad1)*%
X73660000Y-50800000D03*
%TD*%
D12*
%TO.P,H1,1*%
%TO.N,Net-(H1-Pad1)*%
X48260000Y-76200000D03*
%TD*%
%TO.P,H2,1*%
%TO.N,Net-(H2-Pad1)*%
X48260000Y-43180000D03*
%TD*%
%TO.P,H3,1*%
%TO.N,Net-(H3-Pad1)*%
X76200000Y-43180000D03*
%TD*%
%TO.P,H4,1*%
%TO.N,Net-(H4-Pad1)*%
X76200000Y-76200000D03*
%TD*%
D11*
%TO.P,J5,1*%
%TO.N,5V*%
X66040000Y-78740000D03*
D10*
%TO.P,J5,2*%
%TO.N,D3*%
X63500000Y-78740000D03*
%TO.P,J5,3*%
%TO.N,GND*%
X60960000Y-78740000D03*
%TD*%
D13*
%TO.N,GND*%
X63500000Y-53340000D02*
X68580000Y-58420000D01*
X50800000Y-53340000D02*
X63500000Y-53340000D01*
X69755001Y-44355001D02*
X66040000Y-40640000D01*
X69755001Y-57244999D02*
X69755001Y-44355001D01*
X68580000Y-58420000D02*
X69755001Y-57244999D01*
X62135001Y-79915001D02*
X60960000Y-78740000D01*
X69755001Y-59595001D02*
X69755001Y-77564999D01*
X67404999Y-79915001D02*
X62135001Y-79915001D01*
X69755001Y-77564999D02*
X67404999Y-79915001D01*
X68580000Y-58420000D02*
X69755001Y-59595001D01*
%TO.N,5V*%
X53340000Y-50800000D02*
X63500000Y-40640000D01*
X50800000Y-50800000D02*
X53340000Y-50800000D01*
X50235999Y-54515001D02*
X62135001Y-54515001D01*
X49624999Y-53904001D02*
X50235999Y-54515001D01*
X49624999Y-51975001D02*
X49624999Y-53904001D01*
X62135001Y-54515001D02*
X68580000Y-60960000D01*
X50800000Y-50800000D02*
X49624999Y-51975001D01*
X68580000Y-76200000D02*
X66040000Y-78740000D01*
X68580000Y-60960000D02*
X68580000Y-76200000D01*
%TD*%
M02*
