%TF.GenerationSoftware,KiCad,Pcbnew,5.1.10-6.fc33*%
%TF.CreationDate,2021-11-22T15:00:23-05:00*%
%TF.ProjectId,ha_monitor,68615f6d-6f6e-4697-946f-722e6b696361,rev?*%
%TF.SameCoordinates,Original*%
%TF.FileFunction,Legend,Bot*%
%TF.FilePolarity,Positive*%
%FSLAX46Y46*%
G04 Gerber Fmt 4.6, Leading zero omitted, Abs format (unit mm)*
G04 Created by KiCad (PCBNEW 5.1.10-6.fc33) date 2021-11-22 15:00:23*
%MOMM*%
%LPD*%
G01*
G04 APERTURE LIST*
%ADD10C,0.150000*%
%ADD11C,0.120000*%
G04 APERTURE END LIST*
D10*
X65847261Y-60412380D02*
X65513928Y-61412380D01*
X65180595Y-60412380D01*
X64275833Y-61317142D02*
X64323452Y-61364761D01*
X64466309Y-61412380D01*
X64561547Y-61412380D01*
X64704404Y-61364761D01*
X64799642Y-61269523D01*
X64847261Y-61174285D01*
X64894880Y-60983809D01*
X64894880Y-60840952D01*
X64847261Y-60650476D01*
X64799642Y-60555238D01*
X64704404Y-60460000D01*
X64561547Y-60412380D01*
X64466309Y-60412380D01*
X64323452Y-60460000D01*
X64275833Y-60507619D01*
X63275833Y-61317142D02*
X63323452Y-61364761D01*
X63466309Y-61412380D01*
X63561547Y-61412380D01*
X63704404Y-61364761D01*
X63799642Y-61269523D01*
X63847261Y-61174285D01*
X63894880Y-60983809D01*
X63894880Y-60840952D01*
X63847261Y-60650476D01*
X63799642Y-60555238D01*
X63704404Y-60460000D01*
X63561547Y-60412380D01*
X63466309Y-60412380D01*
X63323452Y-60460000D01*
X63275833Y-60507619D01*
X65180595Y-57920000D02*
X65275833Y-57872380D01*
X65418690Y-57872380D01*
X65561547Y-57920000D01*
X65656785Y-58015238D01*
X65704404Y-58110476D01*
X65752023Y-58300952D01*
X65752023Y-58443809D01*
X65704404Y-58634285D01*
X65656785Y-58729523D01*
X65561547Y-58824761D01*
X65418690Y-58872380D01*
X65323452Y-58872380D01*
X65180595Y-58824761D01*
X65132976Y-58777142D01*
X65132976Y-58443809D01*
X65323452Y-58443809D01*
X64704404Y-58872380D02*
X64704404Y-57872380D01*
X64132976Y-58872380D01*
X64132976Y-57872380D01*
X63656785Y-58872380D02*
X63656785Y-57872380D01*
X63418690Y-57872380D01*
X63275833Y-57920000D01*
X63180595Y-58015238D01*
X63132976Y-58110476D01*
X63085357Y-58300952D01*
X63085357Y-58443809D01*
X63132976Y-58634285D01*
X63180595Y-58729523D01*
X63275833Y-58824761D01*
X63418690Y-58872380D01*
X63656785Y-58872380D01*
X65752023Y-56284761D02*
X65609166Y-56332380D01*
X65371071Y-56332380D01*
X65275833Y-56284761D01*
X65228214Y-56237142D01*
X65180595Y-56141904D01*
X65180595Y-56046666D01*
X65228214Y-55951428D01*
X65275833Y-55903809D01*
X65371071Y-55856190D01*
X65561547Y-55808571D01*
X65656785Y-55760952D01*
X65704404Y-55713333D01*
X65752023Y-55618095D01*
X65752023Y-55522857D01*
X65704404Y-55427619D01*
X65656785Y-55380000D01*
X65561547Y-55332380D01*
X65323452Y-55332380D01*
X65180595Y-55380000D01*
X64180595Y-56237142D02*
X64228214Y-56284761D01*
X64371071Y-56332380D01*
X64466309Y-56332380D01*
X64609166Y-56284761D01*
X64704404Y-56189523D01*
X64752023Y-56094285D01*
X64799642Y-55903809D01*
X64799642Y-55760952D01*
X64752023Y-55570476D01*
X64704404Y-55475238D01*
X64609166Y-55380000D01*
X64466309Y-55332380D01*
X64371071Y-55332380D01*
X64228214Y-55380000D01*
X64180595Y-55427619D01*
X63275833Y-56332380D02*
X63752023Y-56332380D01*
X63752023Y-55332380D01*
X65752023Y-53744761D02*
X65609166Y-53792380D01*
X65371071Y-53792380D01*
X65275833Y-53744761D01*
X65228214Y-53697142D01*
X65180595Y-53601904D01*
X65180595Y-53506666D01*
X65228214Y-53411428D01*
X65275833Y-53363809D01*
X65371071Y-53316190D01*
X65561547Y-53268571D01*
X65656785Y-53220952D01*
X65704404Y-53173333D01*
X65752023Y-53078095D01*
X65752023Y-52982857D01*
X65704404Y-52887619D01*
X65656785Y-52840000D01*
X65561547Y-52792380D01*
X65323452Y-52792380D01*
X65180595Y-52840000D01*
X64752023Y-53792380D02*
X64752023Y-52792380D01*
X64513928Y-52792380D01*
X64371071Y-52840000D01*
X64275833Y-52935238D01*
X64228214Y-53030476D01*
X64180595Y-53220952D01*
X64180595Y-53363809D01*
X64228214Y-53554285D01*
X64275833Y-53649523D01*
X64371071Y-53744761D01*
X64513928Y-53792380D01*
X64752023Y-53792380D01*
X63799642Y-53506666D02*
X63323452Y-53506666D01*
X63894880Y-53792380D02*
X63561547Y-52792380D01*
X63228214Y-53792380D01*
X66540000Y-44860595D02*
X66587619Y-44955833D01*
X66587619Y-45098690D01*
X66540000Y-45241547D01*
X66444761Y-45336785D01*
X66349523Y-45384404D01*
X66159047Y-45432023D01*
X66016190Y-45432023D01*
X65825714Y-45384404D01*
X65730476Y-45336785D01*
X65635238Y-45241547D01*
X65587619Y-45098690D01*
X65587619Y-45003452D01*
X65635238Y-44860595D01*
X65682857Y-44812976D01*
X66016190Y-44812976D01*
X66016190Y-45003452D01*
X65587619Y-44384404D02*
X66587619Y-44384404D01*
X65587619Y-43812976D01*
X66587619Y-43812976D01*
X65587619Y-43336785D02*
X66587619Y-43336785D01*
X66587619Y-43098690D01*
X66540000Y-42955833D01*
X66444761Y-42860595D01*
X66349523Y-42812976D01*
X66159047Y-42765357D01*
X66016190Y-42765357D01*
X65825714Y-42812976D01*
X65730476Y-42860595D01*
X65635238Y-42955833D01*
X65587619Y-43098690D01*
X65587619Y-43336785D01*
X64047619Y-45527261D02*
X63047619Y-45193928D01*
X64047619Y-44860595D01*
X63142857Y-43955833D02*
X63095238Y-44003452D01*
X63047619Y-44146309D01*
X63047619Y-44241547D01*
X63095238Y-44384404D01*
X63190476Y-44479642D01*
X63285714Y-44527261D01*
X63476190Y-44574880D01*
X63619047Y-44574880D01*
X63809523Y-44527261D01*
X63904761Y-44479642D01*
X64000000Y-44384404D01*
X64047619Y-44241547D01*
X64047619Y-44146309D01*
X64000000Y-44003452D01*
X63952380Y-43955833D01*
X63142857Y-42955833D02*
X63095238Y-43003452D01*
X63047619Y-43146309D01*
X63047619Y-43241547D01*
X63095238Y-43384404D01*
X63190476Y-43479642D01*
X63285714Y-43527261D01*
X63476190Y-43574880D01*
X63619047Y-43574880D01*
X63809523Y-43527261D01*
X63904761Y-43479642D01*
X64000000Y-43384404D01*
X64047619Y-43241547D01*
X64047619Y-43146309D01*
X64000000Y-43003452D01*
X63952380Y-42955833D01*
X60555238Y-45432023D02*
X60507619Y-45289166D01*
X60507619Y-45051071D01*
X60555238Y-44955833D01*
X60602857Y-44908214D01*
X60698095Y-44860595D01*
X60793333Y-44860595D01*
X60888571Y-44908214D01*
X60936190Y-44955833D01*
X60983809Y-45051071D01*
X61031428Y-45241547D01*
X61079047Y-45336785D01*
X61126666Y-45384404D01*
X61221904Y-45432023D01*
X61317142Y-45432023D01*
X61412380Y-45384404D01*
X61460000Y-45336785D01*
X61507619Y-45241547D01*
X61507619Y-45003452D01*
X61460000Y-44860595D01*
X60602857Y-43860595D02*
X60555238Y-43908214D01*
X60507619Y-44051071D01*
X60507619Y-44146309D01*
X60555238Y-44289166D01*
X60650476Y-44384404D01*
X60745714Y-44432023D01*
X60936190Y-44479642D01*
X61079047Y-44479642D01*
X61269523Y-44432023D01*
X61364761Y-44384404D01*
X61460000Y-44289166D01*
X61507619Y-44146309D01*
X61507619Y-44051071D01*
X61460000Y-43908214D01*
X61412380Y-43860595D01*
X60507619Y-42955833D02*
X60507619Y-43432023D01*
X61507619Y-43432023D01*
X58015238Y-45432023D02*
X57967619Y-45289166D01*
X57967619Y-45051071D01*
X58015238Y-44955833D01*
X58062857Y-44908214D01*
X58158095Y-44860595D01*
X58253333Y-44860595D01*
X58348571Y-44908214D01*
X58396190Y-44955833D01*
X58443809Y-45051071D01*
X58491428Y-45241547D01*
X58539047Y-45336785D01*
X58586666Y-45384404D01*
X58681904Y-45432023D01*
X58777142Y-45432023D01*
X58872380Y-45384404D01*
X58920000Y-45336785D01*
X58967619Y-45241547D01*
X58967619Y-45003452D01*
X58920000Y-44860595D01*
X57967619Y-44432023D02*
X58967619Y-44432023D01*
X58967619Y-44193928D01*
X58920000Y-44051071D01*
X58824761Y-43955833D01*
X58729523Y-43908214D01*
X58539047Y-43860595D01*
X58396190Y-43860595D01*
X58205714Y-43908214D01*
X58110476Y-43955833D01*
X58015238Y-44051071D01*
X57967619Y-44193928D01*
X57967619Y-44432023D01*
X58253333Y-43479642D02*
X58253333Y-43003452D01*
X57967619Y-43574880D02*
X58967619Y-43241547D01*
X57967619Y-42908214D01*
D11*
%TO.C,J4*%
X67250000Y-59690000D02*
X69910000Y-59690000D01*
X67250000Y-59690000D02*
X67250000Y-52010000D01*
X67250000Y-52010000D02*
X69910000Y-52010000D01*
X69910000Y-59690000D02*
X69910000Y-52010000D01*
X69910000Y-62290000D02*
X69910000Y-60960000D01*
X68580000Y-62290000D02*
X69910000Y-62290000D01*
%TO.C,J1*%
X57090000Y-40640000D02*
X57090000Y-41970000D01*
X57090000Y-41970000D02*
X58420000Y-41970000D01*
X59690000Y-41970000D02*
X67370000Y-41970000D01*
X67370000Y-39310000D02*
X67370000Y-41970000D01*
X59690000Y-39310000D02*
X67370000Y-39310000D01*
X59690000Y-39310000D02*
X59690000Y-41970000D01*
%TO.C,J4*%
D10*
X68913333Y-63182380D02*
X68913333Y-63896666D01*
X68960952Y-64039523D01*
X69056190Y-64134761D01*
X69199047Y-64182380D01*
X69294285Y-64182380D01*
X68008571Y-63515714D02*
X68008571Y-64182380D01*
X68246666Y-63134761D02*
X68484761Y-63849047D01*
X67865714Y-63849047D01*
%TO.C,J1*%
X55102380Y-40306666D02*
X55816666Y-40306666D01*
X55959523Y-40259047D01*
X56054761Y-40163809D01*
X56102380Y-40020952D01*
X56102380Y-39925714D01*
X56102380Y-41306666D02*
X56102380Y-40735238D01*
X56102380Y-41020952D02*
X55102380Y-41020952D01*
X55245238Y-40925714D01*
X55340476Y-40830476D01*
X55388095Y-40735238D01*
%TD*%
M02*
